<svg width="1920" height="1398" viewBox="0 0 1920 1398" fill="none" xmlns="http://www.w3.org/2000/svg">
<path d="M672.206 541.408C737.037 394.333 263.235 335.051 534.706 174.908C644.114 118.527 494.234 -30.4009 413.287 6.49815C312.104 52.622 312.795 73.9981 110.263 20.1661C-45.6122 6.74304 122.169 194.107 -77.855 429.224C-291.791 604.595 -69.7938 686.908 69.2062 652.908C208.206 618.908 359.375 855.524 428.706 662.907C491.706 523.408 607.376 688.482 672.206 541.408Z" stroke="#FF5983" stroke-width="6"/>
<path d="M1831.78 -218.409C1675.89 -257.541 1783.08 283.12 1579.5 42.5002C1505.5 -55.848 1298.12 53.3338 1348.13 126.909C1410.63 218.878 1271.45 233.794 1252.5 442.5C1265.52 598.409 1460.05 340.436 1725.5 498C1934.4 679.342 1923.43 462.788 1866.5 331.5C1809.57 200.213 2194.1 37.0455 1992.56 1.1481C1844.44 -37.4557 1987.68 -179.277 1831.78 -218.409Z" stroke="#FFB515" stroke-width="6"/>
<path d="M1068.17 672.295C952.855 784.266 1285.4 917.983 973.666 964.477C851.093 975.651 848.234 1088.21 937.113 1084.41C1048.21 1079.65 974.973 1231.99 1147.35 1334.14C1284.42 1415.37 1264.95 996.217 1502.09 1011.84C1736.09 1042.76 1522.21 919.29 1503.62 812.921C1485.03 706.553 1484.01 571.253 1347.43 723.744C1236.66 829.382 1183.48 560.324 1068.17 672.295Z" stroke="#FF36C3" stroke-width="6"/>
</svg>
