<svg width="597" height="575" viewBox="0 0 597 575" fill="none" xmlns="http://www.w3.org/2000/svg">
<path d="M507.117 175.473C501.589 26.1946 208.617 -46.0998 208.617 64.8964" stroke="#FFF6F3" stroke-width="15" stroke-linecap="round"/>
<path d="M501.589 214.175C522.507 269.137 486.652 393.938 582.138 378.216" stroke="#FFF6F3" stroke-width="15" stroke-linecap="round"/>
<path d="M158.867 119C109.117 423.087 512.645 318.038 507.117 168.76" stroke="#FFF6F3" stroke-width="15" stroke-linecap="round"/>
<path d="M393.896 92.5406C431.012 140.617 407.815 188.694 379.978 203.118" stroke="#FFF6F3" stroke-width="15" stroke-linecap="round"/>
<path d="M272.285 147.829C309.401 195.906 286.204 243.982 258.367 258.406" stroke="#FFF6F3" stroke-width="15" stroke-linecap="round"/>
<path d="M258.368 357.926C208.618 341.34 125.702 385.571 132.636 531.711C53.8418 418.744 28.431 193.511 150.045 121.636C150.045 121.636 188.737 98.0704 241.786 98.0705C294.835 98.0705 354.574 98.0696 354.574 98.0696" stroke="#FFF6F3" stroke-width="15" stroke-linecap="round"/>
<path d="M346.812 103.598C350.128 127.862 381.305 157.945 413.145 144.506" stroke="#FFF6F3" stroke-width="15"/>
<path d="M280.478 92.5406C280.478 32.9993 280.478 21.0909 280.478 15.1368" stroke="#FFF6F3" stroke-width="15"/>
<path d="M302.061 395.57C310.928 395.57 318.116 388.381 318.116 379.512C318.116 370.644 310.928 363.454 302.061 363.454C293.194 363.454 286.006 370.644 286.006 379.512C286.006 388.381 293.194 395.57 302.061 395.57Z" fill="#FFF6F3" stroke="#FFF6F3"/>
<path d="M346.283 417.69C355.15 417.69 362.338 410.499 362.338 401.63C362.338 392.76 355.15 385.57 346.283 385.57C337.416 385.57 330.228 392.76 330.228 401.63C330.228 410.499 337.416 417.69 346.283 417.69Z" fill="#FFF6F3" stroke="#FFF6F3"/>
<path d="M390.506 439.805C399.372 439.805 406.561 432.615 406.561 423.745C406.561 414.875 399.372 407.685 390.506 407.685C381.639 407.685 374.451 414.875 374.451 423.745C374.451 432.615 381.639 439.805 390.506 439.805Z" fill="#FFF6F3" stroke="#FFF6F3"/>
<path d="M434.728 461.92C443.595 461.92 450.783 454.73 450.783 445.86C450.783 436.991 443.595 429.8 434.728 429.8C425.861 429.8 418.673 436.991 418.673 445.86C418.673 454.73 425.861 461.92 434.728 461.92Z" fill="#FFF6F3" stroke="#FFF6F3"/>
<path d="M478.95 472.978C487.817 472.978 495.005 465.788 495.005 456.918C495.005 448.048 487.817 440.858 478.95 440.858C470.083 440.858 462.895 448.048 462.895 456.918C462.895 465.788 470.083 472.978 478.95 472.978Z" fill="#FFF6F3" stroke="#FFF6F3"/>
<path d="M523.172 472.978C532.039 472.978 539.227 465.788 539.227 456.918C539.227 448.048 532.039 440.858 523.172 440.858C514.305 440.858 507.117 448.048 507.117 456.918C507.117 465.788 514.305 472.978 523.172 472.978Z" fill="#FFF6F3" stroke="#FFF6F3"/>
<path d="M556.339 439.805C565.206 439.805 572.394 432.615 572.394 423.745C572.394 414.875 565.206 407.685 556.339 407.685C547.472 407.685 540.284 414.875 540.284 423.745C540.284 432.615 547.472 439.805 556.339 439.805Z" fill="#FFF6F3" stroke="#FFF6F3"/>
</svg>
