<svg width="330" height="311" viewBox="0 0 330 311" fill="none" xmlns="http://www.w3.org/2000/svg">
<path d="M281.433 97.8143C278.363 14.9067 115.618 -25.2446 115.618 36.4012" stroke="#FF5983" stroke-width="13" stroke-linecap="round"/>
<path d="M278.364 119.31C289.984 149.835 270.067 219.148 323.108 210.416" stroke="#FF5983" stroke-width="13" stroke-linecap="round"/>
<path d="M87.9837 67.1124C60.3478 235.998 284.505 177.656 281.435 94.7481" stroke="#FF5983" stroke-width="13" stroke-linecap="round"/>
<path d="M218.543 51.7559C239.161 78.4572 226.275 105.158 210.811 113.169" stroke="#FF5983" stroke-width="13" stroke-linecap="round"/>
<path d="M150.985 82.4629C171.603 109.164 158.717 135.865 143.254 143.876" stroke="#FF5983" stroke-width="13" stroke-linecap="round"/>
<path d="M196.695 54.8217C196.695 54.8217 163.51 54.8222 134.042 54.8222C104.573 54.8221 83.0801 67.91 83.0801 67.91C15.5244 107.828 27.0444 242.404 86.3069 299.755" stroke="#FF5983" stroke-width="13" stroke-linecap="round"/>
<path d="M192.385 57.8975C194.227 71.3731 211.546 88.0807 229.233 80.6173" stroke="#FF5983" stroke-width="13"/>
<path d="M155.537 51.7562C155.537 18.6876 155.537 12.0739 155.537 8.76709" stroke="#FF5983" stroke-width="13"/>
<circle cx="164.749" cy="208.359" r="8.71195" fill="#FF5983" stroke="#FF5983"/>
<circle cx="189.314" cy="220.642" r="8.71195" fill="#FF5983" stroke="#FF5983"/>
<circle cx="213.882" cy="232.925" r="8.71195" fill="#FF5983" stroke="#FF5983"/>
<circle cx="238.447" cy="245.207" r="8.71195" fill="#FF5983" stroke="#FF5983"/>
<circle cx="263.012" cy="251.348" r="8.71195" fill="#FF5983" stroke="#FF5983"/>
<circle cx="287.578" cy="251.348" r="8.71195" fill="#FF5983" stroke="#FF5983"/>
<circle cx="306.001" cy="232.925" r="8.71195" fill="#FF5983" stroke="#FF5983"/>
<path d="M140.502 202.205C143.64 203.949 147.598 202.818 149.341 199.68C151.084 196.542 149.954 192.585 146.816 190.841L143.659 196.523L140.502 202.205ZM86.3079 299.755L92.6663 298.405C82.906 252.42 89.7952 224.665 100.997 210.611C111.884 196.952 127.672 195.078 140.502 202.205L143.659 196.523L146.816 190.841C128.676 180.764 105.848 183.668 90.8313 202.508C76.1295 220.953 69.828 253.416 79.9496 301.104L86.3079 299.755Z" fill="#FF5983"/>
</svg>
