<svg width="719" height="384" viewBox="0 0 719 384" fill="none" xmlns="http://www.w3.org/2000/svg">
<path d="M130.51 22.056H139.63V78.696L178.03 22.056H187.246V93H178.126V36.36L139.726 93H130.51V22.056ZM268.199 73.992C264.871 80.584 260.423 85.608 254.855 89.064C249.287 92.52 242.887 94.248 235.655 94.248C230.407 94.248 225.479 93.32 220.871 91.464C216.327 89.544 212.391 86.952 209.063 83.688C205.735 80.424 203.111 76.552 201.191 72.072C199.271 67.592 198.311 62.76 198.311 57.576C198.311 52.392 199.239 47.56 201.095 43.08C203.015 38.6 205.607 34.728 208.871 31.464C212.135 28.136 216.007 25.544 220.487 23.688C224.967 21.768 229.799 20.808 234.983 20.808C238.695 20.808 242.215 21.288 245.543 22.248C248.935 23.144 252.039 24.488 254.855 26.28C257.735 28.008 260.295 30.12 262.535 32.616C264.775 35.112 266.599 37.96 268.007 41.16H257.735C255.047 37.128 251.879 34.152 248.231 32.232C244.583 30.312 240.263 29.352 235.271 29.352C231.367 29.352 227.719 30.088 224.327 31.56C220.935 32.968 217.991 34.92 215.495 37.416C212.999 39.912 211.047 42.888 209.639 46.344C208.231 49.736 207.527 53.448 207.527 57.48C207.527 61.384 208.263 65.064 209.735 68.52C211.207 71.912 213.191 74.888 215.687 77.448C218.247 80.008 221.223 82.024 224.615 83.496C228.007 84.968 231.623 85.704 235.463 85.704C239.943 85.704 243.943 84.776 247.463 82.92C250.983 81.064 254.407 78.088 257.735 73.992H268.199ZM279.104 22.056H288.224V53.928L317.12 22.056H328.736L296.48 57.096L328.736 93H317.024L288.224 60.552V93H279.104V22.056ZM352.413 74.28L330.237 22.056H339.933L357.021 63.048L374.205 22.056H383.997L353.757 93H344.637L352.413 74.28ZM458.605 73.992C455.277 80.584 450.829 85.608 445.261 89.064C439.693 92.52 433.293 94.248 426.061 94.248C420.813 94.248 415.885 93.32 411.277 91.464C406.733 89.544 402.797 86.952 399.469 83.688C396.141 80.424 393.517 76.552 391.597 72.072C389.677 67.592 388.717 62.76 388.717 57.576C388.717 52.392 389.645 47.56 391.501 43.08C393.421 38.6 396.013 34.728 399.277 31.464C402.541 28.136 406.413 25.544 410.893 23.688C415.373 21.768 420.205 20.808 425.389 20.808C429.101 20.808 432.621 21.288 435.949 22.248C439.341 23.144 442.445 24.488 445.261 26.28C448.141 28.008 450.701 30.12 452.941 32.616C455.181 35.112 457.005 37.96 458.413 41.16H448.141C445.453 37.128 442.285 34.152 438.637 32.232C434.989 30.312 430.669 29.352 425.677 29.352C421.773 29.352 418.125 30.088 414.733 31.56C411.341 32.968 408.397 34.92 405.901 37.416C403.405 39.912 401.453 42.888 400.045 46.344C398.637 49.736 397.933 53.448 397.933 57.48C397.933 61.384 398.669 65.064 400.141 68.52C401.613 71.912 403.597 74.888 406.093 77.448C408.653 80.008 411.629 82.024 415.021 83.496C418.413 84.968 422.029 85.704 425.869 85.704C430.349 85.704 434.349 84.776 437.869 82.92C441.389 81.064 444.813 78.088 448.141 73.992H458.605ZM536.23 73.992C532.902 80.584 528.454 85.608 522.886 89.064C517.318 92.52 510.918 94.248 503.686 94.248C498.438 94.248 493.51 93.32 488.902 91.464C484.358 89.544 480.422 86.952 477.094 83.688C473.766 80.424 471.142 76.552 469.222 72.072C467.302 67.592 466.342 62.76 466.342 57.576C466.342 52.392 467.27 47.56 469.126 43.08C471.046 38.6 473.638 34.728 476.902 31.464C480.166 28.136 484.038 25.544 488.518 23.688C492.998 21.768 497.83 20.808 503.014 20.808C506.726 20.808 510.246 21.288 513.574 22.248C516.966 23.144 520.07 24.488 522.886 26.28C525.766 28.008 528.326 30.12 530.566 32.616C532.806 35.112 534.63 37.96 536.038 41.16H525.766C523.078 37.128 519.91 34.152 516.262 32.232C512.614 30.312 508.294 29.352 503.302 29.352C499.398 29.352 495.75 30.088 492.358 31.56C488.966 32.968 486.022 34.92 483.526 37.416C481.03 39.912 479.078 42.888 477.67 46.344C476.262 49.736 475.558 53.448 475.558 57.48C475.558 61.384 476.294 65.064 477.766 68.52C479.238 71.912 481.222 74.888 483.718 77.448C486.278 80.008 489.254 82.024 492.646 83.496C496.038 84.968 499.654 85.704 503.494 85.704C507.974 85.704 511.974 84.776 515.494 82.92C519.014 81.064 522.438 78.088 525.766 73.992H536.23ZM555.871 30.504H540.703V22.056H580.255V30.504H564.991V93H555.871V30.504ZM588.01 22.056H603.946C612.586 22.056 618.954 23.56 623.05 26.568C627.21 29.576 629.29 34.28 629.29 40.68C629.29 44.136 628.65 46.984 627.37 49.224C626.154 51.464 624.17 53.352 621.418 54.888C625.642 56.616 628.682 58.856 630.538 61.608C632.394 64.36 633.322 67.944 633.322 72.36C633.322 86.12 624.234 93 606.058 93H588.01V22.056ZM605.77 84.552C612.234 84.552 616.906 83.624 619.786 81.768C622.666 79.848 624.106 76.776 624.106 72.552C624.106 68.648 622.826 65.608 620.266 63.432C617.706 61.192 614.122 60.072 609.514 60.072H597.13V84.552H605.77ZM608.938 51.528C616.362 51.528 620.074 48.04 620.074 41.064C620.074 37.288 618.89 34.6 616.522 33C614.154 31.4 610.186 30.6 604.618 30.6H597.13V51.528H608.938ZM640.342 57.576C640.342 52.456 641.302 47.656 643.222 43.176C645.206 38.696 647.894 34.792 651.286 31.464C654.742 28.136 658.774 25.544 663.382 23.688C667.99 21.768 672.95 20.808 678.262 20.808C683.254 20.808 687.99 21.8 692.47 23.784C696.95 25.704 700.854 28.328 704.182 31.656C707.51 34.984 710.134 38.888 712.054 43.368C714.038 47.784 715.03 52.52 715.03 57.576C715.03 62.632 714.038 67.4 712.054 71.88C710.134 76.36 707.478 80.264 704.086 83.592C700.758 86.856 696.822 89.448 692.278 91.368C687.798 93.288 682.998 94.248 677.878 94.248C672.694 94.248 667.83 93.288 663.286 91.368C658.742 89.448 654.774 86.824 651.382 83.496C647.99 80.168 645.302 76.296 643.318 71.88C641.334 67.4 640.342 62.632 640.342 57.576ZM649.558 57.576C649.558 61.416 650.294 65.064 651.766 68.52C653.238 71.912 655.254 74.888 657.814 77.448C660.374 80.008 663.35 82.024 666.742 83.496C670.198 84.968 673.878 85.704 677.782 85.704C681.686 85.704 685.334 84.968 688.726 83.496C692.118 82.024 695.062 80.04 697.558 77.544C700.118 74.984 702.134 72.008 703.606 68.616C705.078 65.224 705.814 61.576 705.814 57.672C705.814 53.704 705.078 49.992 703.606 46.536C702.134 43.08 700.118 40.104 697.558 37.608C694.998 35.048 691.99 33.032 688.534 31.56C685.078 30.088 681.366 29.352 677.398 29.352C673.622 29.352 670.038 30.12 666.646 31.656C663.254 33.128 660.278 35.144 657.718 37.704C655.222 40.264 653.238 43.272 651.766 46.728C650.294 50.12 649.558 53.736 649.558 57.576ZM272.635 150.056H281.755V181.928L310.651 150.056H322.267L290.011 185.096L322.267 221H310.555L281.755 188.552V221H272.635V150.056ZM326.936 185.576C326.936 180.456 327.896 175.656 329.816 171.176C331.8 166.696 334.488 162.792 337.88 159.464C341.336 156.136 345.368 153.544 349.976 151.688C354.584 149.768 359.544 148.808 364.856 148.808C369.848 148.808 374.584 149.8 379.064 151.784C383.544 153.704 387.448 156.328 390.776 159.656C394.104 162.984 396.728 166.888 398.648 171.368C400.632 175.784 401.624 180.52 401.624 185.576C401.624 190.632 400.632 195.4 398.648 199.88C396.728 204.36 394.072 208.264 390.68 211.592C387.352 214.856 383.416 217.448 378.872 219.368C374.392 221.288 369.592 222.248 364.472 222.248C359.288 222.248 354.424 221.288 349.88 219.368C345.336 217.448 341.368 214.824 337.976 211.496C334.584 208.168 331.896 204.296 329.912 199.88C327.928 195.4 326.936 190.632 326.936 185.576ZM336.152 185.576C336.152 189.416 336.888 193.064 338.36 196.52C339.832 199.912 341.848 202.888 344.408 205.448C346.968 208.008 349.944 210.024 353.336 211.496C356.792 212.968 360.472 213.704 364.376 213.704C368.28 213.704 371.928 212.968 375.32 211.496C378.712 210.024 381.656 208.04 384.152 205.544C386.712 202.984 388.728 200.008 390.2 196.616C391.672 193.224 392.408 189.576 392.408 185.672C392.408 181.704 391.672 177.992 390.2 174.536C388.728 171.08 386.712 168.104 384.152 165.608C381.592 163.048 378.584 161.032 375.128 159.56C371.672 158.088 367.96 157.352 363.992 157.352C360.216 157.352 356.632 158.12 353.24 159.656C349.848 161.128 346.872 163.144 344.312 165.704C341.816 168.264 339.832 171.272 338.36 174.728C336.888 178.12 336.152 181.736 336.152 185.576ZM421.434 158.504H406.266V150.056H445.818V158.504H430.554V221H421.434V158.504ZM450.405 185.576C450.405 180.456 451.365 175.656 453.285 171.176C455.269 166.696 457.957 162.792 461.349 159.464C464.805 156.136 468.837 153.544 473.445 151.688C478.053 149.768 483.013 148.808 488.325 148.808C493.317 148.808 498.053 149.8 502.533 151.784C507.013 153.704 510.917 156.328 514.245 159.656C517.573 162.984 520.197 166.888 522.117 171.368C524.101 175.784 525.093 180.52 525.093 185.576C525.093 190.632 524.101 195.4 522.117 199.88C520.197 204.36 517.541 208.264 514.149 211.592C510.821 214.856 506.885 217.448 502.341 219.368C497.861 221.288 493.061 222.248 487.941 222.248C482.757 222.248 477.893 221.288 473.349 219.368C468.805 217.448 464.837 214.824 461.445 211.496C458.053 208.168 455.365 204.296 453.381 199.88C451.397 195.4 450.405 190.632 450.405 185.576ZM459.621 185.576C459.621 189.416 460.357 193.064 461.829 196.52C463.301 199.912 465.317 202.888 467.877 205.448C470.437 208.008 473.413 210.024 476.805 211.496C480.261 212.968 483.941 213.704 487.845 213.704C491.749 213.704 495.397 212.968 498.789 211.496C502.181 210.024 505.125 208.04 507.621 205.544C510.181 202.984 512.197 200.008 513.669 196.616C515.141 193.224 515.877 189.576 515.877 185.672C515.877 181.704 515.141 177.992 513.669 174.536C512.197 171.08 510.181 168.104 507.621 165.608C505.061 163.048 502.053 161.032 498.597 159.56C495.141 158.088 491.429 157.352 487.461 157.352C483.685 157.352 480.101 158.12 476.709 159.656C473.317 161.128 470.341 163.144 467.781 165.704C465.285 168.264 463.301 171.272 461.829 174.728C460.357 178.12 459.621 181.736 459.621 185.576ZM536.167 150.056H555.079C557.383 150.056 559.463 150.12 561.319 150.248C563.175 150.376 564.839 150.6 566.311 150.92C567.847 151.24 569.223 151.624 570.439 152.072C571.719 152.52 572.903 153.096 573.991 153.8C576.743 155.464 578.855 157.864 580.327 161C581.863 164.072 582.631 167.624 582.631 171.656C582.631 175.496 581.927 178.92 580.519 181.928C579.111 184.936 577.127 187.272 574.567 188.936C572.455 190.344 569.991 191.368 567.175 192.008C564.359 192.584 560.583 192.872 555.847 192.872H545.287V221H536.167V150.056ZM555.367 184.424C557.607 184.424 559.815 184.296 561.991 184.04C564.167 183.784 566.087 183.208 567.751 182.312C569.479 181.416 570.855 180.136 571.879 178.472C572.903 176.808 573.415 174.568 573.415 171.752C573.415 168.488 572.839 165.992 571.687 164.264C570.535 162.472 569.031 161.16 567.175 160.328C565.319 159.432 563.207 158.92 560.839 158.792C558.471 158.6 556.039 158.504 553.543 158.504H545.287V184.424H555.367ZM589.249 185.576C589.249 180.456 590.209 175.656 592.129 171.176C594.113 166.696 596.801 162.792 600.193 159.464C603.649 156.136 607.681 153.544 612.289 151.688C616.897 149.768 621.857 148.808 627.169 148.808C632.161 148.808 636.897 149.8 641.377 151.784C645.857 153.704 649.761 156.328 653.089 159.656C656.417 162.984 659.041 166.888 660.961 171.368C662.945 175.784 663.937 180.52 663.937 185.576C663.937 190.632 662.945 195.4 660.961 199.88C659.041 204.36 656.385 208.264 652.993 211.592C649.665 214.856 645.729 217.448 641.185 219.368C636.705 221.288 631.905 222.248 626.785 222.248C621.601 222.248 616.737 221.288 612.193 219.368C607.649 217.448 603.681 214.824 600.289 211.496C596.897 208.168 594.209 204.296 592.225 199.88C590.241 195.4 589.249 190.632 589.249 185.576ZM598.465 185.576C598.465 189.416 599.201 193.064 600.673 196.52C602.145 199.912 604.161 202.888 606.721 205.448C609.281 208.008 612.257 210.024 615.649 211.496C619.105 212.968 622.785 213.704 626.689 213.704C630.593 213.704 634.241 212.968 637.633 211.496C641.025 210.024 643.969 208.04 646.465 205.544C649.025 202.984 651.041 200.008 652.513 196.616C653.985 193.224 654.721 189.576 654.721 185.672C654.721 181.704 653.985 177.992 652.513 174.536C651.041 171.08 649.025 168.104 646.465 165.608C643.905 163.048 640.897 161.032 637.441 159.56C633.985 158.088 630.273 157.352 626.305 157.352C622.529 157.352 618.945 158.12 615.553 159.656C612.161 161.128 609.185 163.144 606.625 165.704C604.129 168.264 602.145 171.272 600.673 174.728C599.201 178.12 598.465 181.736 598.465 185.576ZM675.01 150.056H713.602V158.504H684.13V181.064H712.546V189.512H684.13V212.552H713.602V221H675.01V150.056ZM147.684 286.504H132.516V278.056H172.068V286.504H156.804V349H147.684V286.504ZM179.823 278.056H188.943V307.432H199.599C209.263 307.432 216.335 309.096 220.815 312.424C225.295 315.752 227.535 320.936 227.535 327.976C227.535 335.208 225.231 340.52 220.623 343.912C216.015 347.304 208.783 349 198.927 349H179.823V278.056ZM197.487 340.552C200.367 340.552 203.055 340.456 205.551 340.264C208.111 340.072 210.319 339.56 212.175 338.728C214.095 337.896 215.599 336.648 216.687 334.984C217.775 333.256 218.319 330.92 218.319 327.976C218.319 323.752 216.783 320.68 213.711 318.76C210.703 316.84 205.903 315.88 199.311 315.88H188.943V340.552H197.487ZM236.079 278.056H245.199V349H236.079V278.056ZM286.135 278.056H295.255V308.392H328.279V278.056H337.399V349H328.279V316.84H295.255V349H286.135V278.056ZM348.405 313.576C348.405 308.456 349.365 303.656 351.285 299.176C353.269 294.696 355.957 290.792 359.349 287.464C362.805 284.136 366.837 281.544 371.445 279.688C376.053 277.768 381.013 276.808 386.325 276.808C391.317 276.808 396.053 277.8 400.533 279.784C405.013 281.704 408.917 284.328 412.245 287.656C415.573 290.984 418.197 294.888 420.117 299.368C422.101 303.784 423.093 308.52 423.093 313.576C423.093 318.632 422.101 323.4 420.117 327.88C418.197 332.36 415.541 336.264 412.149 339.592C408.821 342.856 404.885 345.448 400.341 347.368C395.861 349.288 391.061 350.248 385.941 350.248C380.757 350.248 375.893 349.288 371.349 347.368C366.805 345.448 362.837 342.824 359.445 339.496C356.053 336.168 353.365 332.296 351.381 327.88C349.397 323.4 348.405 318.632 348.405 313.576ZM357.621 313.576C357.621 317.416 358.357 321.064 359.829 324.52C361.301 327.912 363.317 330.888 365.877 333.448C368.437 336.008 371.413 338.024 374.805 339.496C378.261 340.968 381.941 341.704 385.845 341.704C389.749 341.704 393.397 340.968 396.789 339.496C400.181 338.024 403.125 336.04 405.621 333.544C408.181 330.984 410.197 328.008 411.669 324.616C413.141 321.224 413.877 317.576 413.877 313.672C413.877 309.704 413.141 305.992 411.669 302.536C410.197 299.08 408.181 296.104 405.621 293.608C403.061 291.048 400.053 289.032 396.597 287.56C393.141 286.088 389.429 285.352 385.461 285.352C381.685 285.352 378.101 286.12 374.709 287.656C371.317 289.128 368.341 291.144 365.781 293.704C363.285 296.264 361.301 299.272 359.829 302.728C358.357 306.12 357.621 309.736 357.621 313.576ZM500.887 329.992C497.559 336.584 493.111 341.608 487.543 345.064C481.975 348.52 475.575 350.248 468.343 350.248C463.095 350.248 458.167 349.32 453.559 347.464C449.015 345.544 445.079 342.952 441.751 339.688C438.423 336.424 435.799 332.552 433.879 328.072C431.959 323.592 430.999 318.76 430.999 313.576C430.999 308.392 431.927 303.56 433.783 299.08C435.703 294.6 438.295 290.728 441.559 287.464C444.823 284.136 448.695 281.544 453.175 279.688C457.655 277.768 462.487 276.808 467.671 276.808C471.383 276.808 474.903 277.288 478.231 278.248C481.623 279.144 484.727 280.488 487.543 282.28C490.423 284.008 492.983 286.12 495.223 288.616C497.463 291.112 499.287 293.96 500.695 297.16H490.423C487.735 293.128 484.567 290.152 480.919 288.232C477.271 286.312 472.951 285.352 467.959 285.352C464.055 285.352 460.407 286.088 457.015 287.56C453.623 288.968 450.679 290.92 448.183 293.416C445.687 295.912 443.735 298.888 442.327 302.344C440.919 305.736 440.215 309.448 440.215 313.48C440.215 317.384 440.951 321.064 442.423 324.52C443.895 327.912 445.879 330.888 448.375 333.448C450.935 336.008 453.911 338.024 457.303 339.496C460.695 340.968 464.311 341.704 468.151 341.704C472.631 341.704 476.631 340.776 480.151 338.92C483.671 337.064 487.095 334.088 490.423 329.992H500.887ZM511.792 278.056H520.912V334.696L559.312 278.056H568.528V349H559.408V292.36L521.008 349H511.792V278.056ZM582.76 278.056H591.88V340.552H614.056V278.056H623.176V340.552H645.352V278.056H654.472V349H582.76V278.056ZM668.823 278.056H677.943V307.432H688.599C691.095 307.432 693.303 307.496 695.223 307.624C697.207 307.752 698.967 307.976 700.503 308.296C702.039 308.552 703.415 308.936 704.631 309.448C705.847 309.896 706.999 310.472 708.087 311.176C710.775 312.84 712.855 315.144 714.327 318.088C715.799 320.968 716.535 324.264 716.535 327.976C716.535 331.944 715.735 335.432 714.135 338.44C712.599 341.384 710.391 343.688 707.511 345.352C705.271 346.696 702.647 347.656 699.639 348.232C696.631 348.744 692.727 349 687.927 349H668.823V278.056ZM686.487 340.552C688.791 340.552 691.159 340.488 693.591 340.36C696.087 340.232 698.327 339.784 700.311 339.016C702.359 338.184 704.023 336.936 705.303 335.272C706.647 333.544 707.319 331.112 707.319 327.976C707.319 325.16 706.711 322.952 705.495 321.352C704.343 319.752 702.839 318.568 700.983 317.8C699.191 316.968 697.143 316.456 694.839 316.264C692.599 316.008 690.423 315.88 688.311 315.88H677.943V340.552H686.487Z" fill="#0D1845"/>
<path d="M529.794 353.952C528.474 355.944 526.914 357.528 525.114 358.704C523.338 359.88 521.262 360.468 518.886 360.468C517.566 360.468 516.354 360.264 515.25 359.856C514.146 359.424 513.198 358.836 512.406 358.092C511.614 357.324 510.99 356.424 510.534 355.392C510.102 354.36 509.886 353.232 509.886 352.008C509.886 350.352 510.234 348.78 510.93 347.292C511.65 345.804 512.586 344.508 513.738 343.404C514.914 342.276 516.258 341.388 517.77 340.74C519.306 340.092 520.89 339.768 522.522 339.768C524.826 339.768 526.734 340.356 528.246 341.532C529.782 342.684 530.754 344.316 531.162 346.428H527.382C526.926 345.252 526.23 344.364 525.294 343.764C524.382 343.164 523.254 342.864 521.91 342.864C520.758 342.864 519.666 343.104 518.634 343.584C517.602 344.064 516.69 344.7 515.898 345.492C515.13 346.284 514.506 347.208 514.026 348.264C513.57 349.296 513.342 350.376 513.342 351.504C513.342 352.368 513.486 353.16 513.774 353.88C514.062 354.576 514.47 355.188 514.998 355.716C515.526 356.244 516.162 356.652 516.906 356.94C517.65 357.228 518.466 357.372 519.354 357.372C520.626 357.372 521.766 357.108 522.774 356.58C523.806 356.052 524.874 355.176 525.978 353.952H529.794ZM532.914 352.116C532.914 350.436 533.262 348.852 533.958 347.364C534.654 345.876 535.578 344.568 536.73 343.44C537.906 342.312 539.25 341.424 540.762 340.776C542.298 340.104 543.894 339.768 545.55 339.768C546.822 339.768 547.974 339.984 549.006 340.416C550.062 340.824 550.962 341.4 551.706 342.144C552.45 342.864 553.026 343.74 553.434 344.772C553.842 345.78 554.046 346.896 554.046 348.12C554.046 349.752 553.71 351.312 553.038 352.8C552.39 354.288 551.502 355.608 550.374 356.76C549.246 357.888 547.938 358.788 546.45 359.46C544.962 360.132 543.39 360.468 541.734 360.468C540.414 360.468 539.214 360.264 538.134 359.856C537.054 359.424 536.13 358.848 535.362 358.128C534.594 357.384 533.994 356.508 533.562 355.5C533.13 354.468 532.914 353.34 532.914 352.116ZM536.37 351.576C536.37 352.416 536.502 353.196 536.766 353.916C537.054 354.612 537.45 355.224 537.954 355.752C538.482 356.256 539.106 356.652 539.826 356.94C540.546 357.228 541.35 357.372 542.238 357.372C543.414 357.372 544.506 357.132 545.514 356.652C546.522 356.148 547.398 355.5 548.142 354.708C548.91 353.892 549.51 352.956 549.942 351.9C550.374 350.844 550.59 349.752 550.59 348.624C550.59 346.92 550.062 345.54 549.006 344.484C547.974 343.404 546.558 342.864 544.758 342.864C543.606 342.864 542.514 343.116 541.482 343.62C540.474 344.1 539.586 344.748 538.818 345.564C538.074 346.356 537.474 347.28 537.018 348.336C536.586 349.368 536.37 350.448 536.37 351.576ZM559.026 354.096V354.456C559.026 355.296 559.326 355.992 559.926 356.544C560.526 357.096 561.366 357.372 562.446 357.372C562.974 357.372 563.514 357.288 564.066 357.12C564.618 356.928 565.122 356.676 565.578 356.364C566.034 356.028 566.406 355.62 566.694 355.14C567.006 354.66 567.162 354.132 567.162 353.556C567.162 352.74 566.79 352.092 566.046 351.612C565.302 351.132 564.15 350.892 562.59 350.892H562.194L562.626 348.372H562.986C563.514 348.372 564.066 348.324 564.642 348.228C565.218 348.108 565.746 347.928 566.226 347.688C566.706 347.424 567.102 347.088 567.414 346.68C567.726 346.248 567.882 345.708 567.882 345.06C567.882 344.436 567.63 343.92 567.126 343.512C566.622 343.08 565.95 342.864 565.11 342.864C564.198 342.864 563.406 343.116 562.734 343.62C562.086 344.124 561.654 344.736 561.438 345.456H558.126C558.318 344.664 558.654 343.92 559.134 343.224C559.614 342.528 560.19 341.928 560.862 341.424C561.534 340.896 562.278 340.488 563.094 340.2C563.934 339.888 564.81 339.732 565.722 339.732C566.538 339.732 567.282 339.852 567.954 340.092C568.626 340.332 569.202 340.668 569.682 341.1C570.186 341.508 570.57 342.012 570.834 342.612C571.122 343.188 571.266 343.824 571.266 344.52C571.266 345.096 571.158 345.66 570.942 346.212C570.75 346.74 570.474 347.22 570.114 347.652C569.778 348.084 569.37 348.468 568.89 348.804C568.434 349.116 567.93 349.344 567.378 349.488C568.29 349.752 569.046 350.208 569.646 350.856C570.27 351.504 570.582 352.32 570.582 353.304C570.582 354.36 570.33 355.332 569.826 356.22C569.322 357.084 568.65 357.84 567.81 358.488C566.994 359.112 566.07 359.604 565.038 359.964C564.006 360.3 562.962 360.468 561.906 360.468C560.946 360.468 560.082 360.324 559.314 360.036C558.546 359.748 557.886 359.364 557.334 358.884C556.782 358.38 556.35 357.792 556.038 357.12C555.75 356.448 555.606 355.716 555.606 354.924C555.606 354.804 555.606 354.672 555.606 354.528C555.606 354.384 555.618 354.24 555.642 354.096H559.026ZM571.717 356.94H574.453L584.677 340.236H588.097L592.129 356.94H594.865L593.461 364.608H591.085L590.941 360H574.525L572.689 364.608H570.313L571.717 356.94ZM588.601 356.94L585.613 344.448L577.981 356.94H588.601ZM614.408 356.832C613.16 358.128 611.924 359.064 610.7 359.64C609.476 360.192 608.072 360.468 606.488 360.468C605.168 360.468 603.968 360.276 602.888 359.892C601.832 359.484 600.92 358.92 600.152 358.2C599.408 357.48 598.82 356.616 598.388 355.608C597.98 354.6 597.776 353.484 597.776 352.26C597.776 350.58 598.112 348.984 598.784 347.472C599.456 345.96 600.356 344.64 601.484 343.512C602.612 342.36 603.932 341.448 605.444 340.776C606.956 340.104 608.552 339.768 610.232 339.768C611.864 339.768 613.208 340.056 614.264 340.632C615.32 341.208 616.196 342.144 616.892 343.44L617.468 340.236H620.708L617.072 360H613.832L614.408 356.832ZM601.268 351.576C601.268 352.416 601.412 353.196 601.7 353.916C601.988 354.612 602.396 355.224 602.924 355.752C603.452 356.256 604.076 356.652 604.796 356.94C605.54 357.228 606.356 357.372 607.244 357.372C608.42 357.372 609.524 357.132 610.556 356.652C611.588 356.172 612.488 355.536 613.256 354.744C614.024 353.928 614.624 352.992 615.056 351.936C615.512 350.88 615.74 349.776 615.74 348.624C615.74 347.76 615.596 346.98 615.308 346.284C615.02 345.564 614.612 344.952 614.084 344.448C613.58 343.944 612.956 343.56 612.212 343.296C611.492 343.008 610.676 342.864 609.764 342.864C608.636 342.864 607.556 343.104 606.524 343.584C605.492 344.064 604.58 344.712 603.788 345.528C603.02 346.344 602.408 347.28 601.952 348.336C601.496 349.368 601.268 350.448 601.268 351.576ZM625.055 340.236H633.047C634.919 340.236 636.407 340.608 637.511 341.352C638.615 342.096 639.167 343.188 639.167 344.628C639.167 345.708 638.855 346.692 638.231 347.58C637.631 348.444 636.815 349.08 635.783 349.488C637.607 350.184 638.519 351.372 638.519 353.052C638.519 354.132 638.267 355.104 637.763 355.968C637.259 356.808 636.599 357.528 635.783 358.128C634.991 358.728 634.091 359.196 633.083 359.532C632.099 359.844 631.127 360 630.167 360H621.383L625.055 340.236ZM630.131 356.94C630.707 356.94 631.283 356.88 631.859 356.76C632.435 356.64 632.963 356.448 633.443 356.184C633.923 355.896 634.307 355.524 634.595 355.068C634.907 354.612 635.063 354.048 635.063 353.376C635.063 352.536 634.703 351.948 633.983 351.612C633.263 351.252 632.351 351.072 631.247 351.072H626.423L625.307 356.94H630.131ZM631.247 348.3C631.727 348.3 632.231 348.264 632.759 348.192C633.311 348.096 633.815 347.94 634.271 347.724C634.727 347.484 635.111 347.172 635.423 346.788C635.735 346.38 635.891 345.876 635.891 345.276C635.891 344.58 635.555 344.076 634.883 343.764C634.211 343.452 633.311 343.296 632.183 343.296H627.863L626.927 348.3H631.247ZM658.143 356.832C656.895 358.128 655.659 359.064 654.435 359.64C653.211 360.192 651.807 360.468 650.223 360.468C648.903 360.468 647.703 360.276 646.623 359.892C645.567 359.484 644.655 358.92 643.887 358.2C643.143 357.48 642.555 356.616 642.123 355.608C641.715 354.6 641.511 353.484 641.511 352.26C641.511 350.58 641.847 348.984 642.519 347.472C643.191 345.96 644.091 344.64 645.219 343.512C646.347 342.36 647.667 341.448 649.179 340.776C650.691 340.104 652.287 339.768 653.967 339.768C655.599 339.768 656.943 340.056 657.999 340.632C659.055 341.208 659.931 342.144 660.627 343.44L661.203 340.236H664.443L660.807 360H657.567L658.143 356.832ZM645.003 351.576C645.003 352.416 645.147 353.196 645.435 353.916C645.723 354.612 646.131 355.224 646.659 355.752C647.187 356.256 647.811 356.652 648.531 356.94C649.275 357.228 650.091 357.372 650.979 357.372C652.155 357.372 653.259 357.132 654.291 356.652C655.323 356.172 656.223 355.536 656.991 354.744C657.759 353.928 658.359 352.992 658.791 351.936C659.247 350.88 659.475 349.776 659.475 348.624C659.475 347.76 659.331 346.98 659.043 346.284C658.755 345.564 658.347 344.952 657.819 344.448C657.315 343.944 656.691 343.56 655.947 343.296C655.227 343.008 654.411 342.864 653.499 342.864C652.371 342.864 651.291 343.104 650.259 343.584C649.227 344.064 648.315 344.712 647.523 345.528C646.755 346.344 646.143 347.28 645.687 348.336C645.231 349.368 645.003 350.448 645.003 351.576ZM676.313 333.144C676.265 333.312 676.241 333.468 676.241 333.612C676.241 333.756 676.241 333.9 676.241 334.044C676.241 335.364 676.973 336.024 678.437 336.024C680.165 336.024 681.209 335.064 681.569 333.144H684.557C683.981 334.776 683.129 335.964 682.001 336.708C680.897 337.452 679.589 337.824 678.077 337.824C676.565 337.824 675.389 337.452 674.549 336.708C673.733 335.964 673.325 334.776 673.325 333.144H676.313ZM668.789 340.236H672.137L669.365 355.212L683.117 340.236H686.501L682.829 360H679.481L682.253 344.988L668.501 360H665.117L668.789 340.236Z" fill="#FF5983"/>
<path d="M555.762 212.236H573.186L569.514 232H566.13L569.226 215.296H558.57L555.474 232H552.09L555.762 212.236ZM577.488 212.236H580.728L580.152 215.26C581.184 214.108 582.372 213.244 583.716 212.668C585.084 212.068 586.56 211.768 588.144 211.768C589.44 211.768 590.604 211.972 591.636 212.38C592.692 212.788 593.592 213.352 594.336 214.072C595.08 214.792 595.656 215.656 596.064 216.664C596.472 217.672 596.676 218.788 596.676 220.012C596.676 221.668 596.34 223.252 595.668 224.764C594.996 226.252 594.096 227.572 592.968 228.724C591.84 229.876 590.52 230.788 589.008 231.46C587.496 232.132 585.912 232.468 584.256 232.468C581.256 232.468 579.072 231.352 577.704 229.12L575.904 238.84H572.556L577.488 212.236ZM578.676 223.54C578.676 224.38 578.82 225.16 579.108 225.88C579.396 226.6 579.792 227.224 580.296 227.752C580.824 228.256 581.448 228.652 582.168 228.94C582.912 229.228 583.728 229.372 584.616 229.372C585.792 229.372 586.896 229.132 587.928 228.652C588.96 228.172 589.86 227.536 590.628 226.744C591.42 225.952 592.044 225.028 592.5 223.972C592.956 222.916 593.184 221.812 593.184 220.66C593.184 219.796 593.04 219.016 592.752 218.32C592.488 217.6 592.092 216.988 591.564 216.484C591.036 215.956 590.4 215.56 589.656 215.296C588.912 215.008 588.084 214.864 587.172 214.864C586.044 214.864 584.964 215.104 583.932 215.584C582.9 216.064 581.988 216.712 581.196 217.528C580.428 218.32 579.816 219.244 579.36 220.3C578.904 221.332 578.676 222.412 578.676 223.54ZM598.937 224.116C598.937 222.436 599.285 220.852 599.981 219.364C600.677 217.876 601.601 216.568 602.753 215.44C603.929 214.312 605.273 213.424 606.785 212.776C608.321 212.104 609.917 211.768 611.573 211.768C612.845 211.768 613.997 211.984 615.029 212.416C616.085 212.824 616.985 213.4 617.729 214.144C618.473 214.864 619.049 215.74 619.457 216.772C619.865 217.78 620.069 218.896 620.069 220.12C620.069 221.752 619.733 223.312 619.061 224.8C618.413 226.288 617.525 227.608 616.397 228.76C615.269 229.888 613.961 230.788 612.473 231.46C610.985 232.132 609.413 232.468 607.757 232.468C606.437 232.468 605.237 232.264 604.157 231.856C603.077 231.424 602.153 230.848 601.385 230.128C600.617 229.384 600.017 228.508 599.585 227.5C599.153 226.468 598.937 225.34 598.937 224.116ZM602.393 223.576C602.393 224.416 602.525 225.196 602.789 225.916C603.077 226.612 603.473 227.224 603.977 227.752C604.505 228.256 605.129 228.652 605.849 228.94C606.569 229.228 607.373 229.372 608.261 229.372C609.437 229.372 610.529 229.132 611.537 228.652C612.545 228.148 613.421 227.5 614.165 226.708C614.933 225.892 615.533 224.956 615.965 223.9C616.397 222.844 616.613 221.752 616.613 220.624C616.613 218.92 616.085 217.54 615.029 216.484C613.997 215.404 612.581 214.864 610.781 214.864C609.629 214.864 608.537 215.116 607.505 215.62C606.497 216.1 605.609 216.748 604.841 217.564C604.097 218.356 603.497 219.28 603.041 220.336C602.609 221.368 602.393 222.448 602.393 223.576ZM622.962 224.224C622.962 223.216 623.046 222.124 623.214 220.948C623.382 219.748 623.598 218.452 623.862 217.06C624.606 213.028 626.058 209.968 628.218 207.88C630.402 205.792 633.402 204.58 637.218 204.244L645.858 203.524L645.282 206.584L636.894 207.34C633.942 207.604 631.59 208.516 629.838 210.076C628.11 211.636 626.97 213.796 626.418 216.556L626.526 216.592C626.886 216.016 627.342 215.452 627.894 214.9C628.446 214.324 629.082 213.82 629.802 213.388C630.546 212.932 631.362 212.572 632.25 212.308C633.162 212.02 634.158 211.876 635.238 211.876C636.534 211.876 637.71 212.092 638.766 212.524C639.846 212.932 640.77 213.508 641.538 214.252C642.306 214.996 642.894 215.884 643.302 216.916C643.734 217.924 643.95 219.028 643.95 220.228C643.95 221.884 643.602 223.456 642.906 224.944C642.21 226.408 641.286 227.704 640.134 228.832C638.982 229.936 637.65 230.824 636.138 231.496C634.626 232.144 633.042 232.468 631.386 232.468C630.114 232.468 628.95 232.288 627.894 231.928C626.862 231.544 625.974 231.004 625.23 230.308C624.51 229.588 623.946 228.724 623.538 227.716C623.154 226.684 622.962 225.52 622.962 224.224ZM626.094 223.612C626.094 224.452 626.226 225.232 626.49 225.952C626.754 226.648 627.138 227.248 627.642 227.752C628.146 228.256 628.758 228.652 629.478 228.94C630.198 229.228 631.002 229.372 631.89 229.372C633.042 229.372 634.134 229.132 635.166 228.652C636.222 228.172 637.134 227.536 637.902 226.744C638.694 225.952 639.318 225.04 639.774 224.008C640.254 222.952 640.494 221.848 640.494 220.696C640.494 219.856 640.35 219.088 640.062 218.392C639.774 217.672 639.366 217.06 638.838 216.556C638.334 216.052 637.71 215.656 636.966 215.368C636.246 215.08 635.442 214.936 634.554 214.936C633.402 214.936 632.31 215.176 631.278 215.656C630.27 216.136 629.37 216.784 628.578 217.6C627.81 218.392 627.198 219.316 626.742 220.372C626.31 221.404 626.094 222.484 626.094 223.612ZM651.226 230.956L647.194 212.236H650.938L653.854 226.996L662.638 212.236H666.346L650.002 238.84H646.402L651.226 230.956ZM676.313 205.144C676.265 205.312 676.241 205.468 676.241 205.612C676.241 205.756 676.241 205.9 676.241 206.044C676.241 207.364 676.973 208.024 678.437 208.024C680.165 208.024 681.209 207.064 681.569 205.144H684.557C683.981 206.776 683.129 207.964 682.001 208.708C680.897 209.452 679.589 209.824 678.077 209.824C676.565 209.824 675.389 209.452 674.549 208.708C673.733 207.964 673.325 206.776 673.325 205.144H676.313ZM668.789 212.236H672.137L669.365 227.212L683.117 212.236H686.501L682.829 232H679.481L682.253 216.988L668.501 232H665.117L668.789 212.236Z" fill="#FF5983"/>
<path d="M546.987 102.956L542.955 84.236H546.699L549.615 98.996L558.399 84.236H562.107L545.763 110.84H542.163L546.987 102.956ZM559.799 100.94H562.535L572.759 84.236H576.179L580.211 100.94H582.947L581.543 108.608H579.167L579.023 104H562.607L560.771 108.608H558.395L559.799 100.94ZM576.683 100.94L573.695 88.448L566.063 100.94H576.683ZM588.738 84.236H592.086L589.314 99.212L603.066 84.236H606.45L602.778 104H599.43L602.202 88.988L588.45 104H585.066L588.738 84.236ZM610.781 84.236H618.773C620.645 84.236 622.133 84.608 623.237 85.352C624.341 86.096 624.893 87.188 624.893 88.628C624.893 89.708 624.581 90.692 623.957 91.58C623.357 92.444 622.541 93.08 621.509 93.488C623.333 94.184 624.245 95.372 624.245 97.052C624.245 98.132 623.993 99.104 623.489 99.968C622.985 100.808 622.325 101.528 621.509 102.128C620.717 102.728 619.817 103.196 618.809 103.532C617.825 103.844 616.853 104 615.893 104H607.109L610.781 84.236ZM615.857 100.94C616.433 100.94 617.009 100.88 617.585 100.76C618.161 100.64 618.689 100.448 619.169 100.184C619.649 99.896 620.033 99.524 620.321 99.068C620.633 98.612 620.789 98.048 620.789 97.376C620.789 96.536 620.429 95.948 619.709 95.612C618.989 95.252 618.077 95.072 616.973 95.072H612.149L611.033 100.94H615.857ZM616.973 92.3C617.453 92.3 617.957 92.264 618.485 92.192C619.037 92.096 619.541 91.94 619.997 91.724C620.453 91.484 620.837 91.172 621.149 90.788C621.461 90.38 621.617 89.876 621.617 89.276C621.617 88.58 621.281 88.076 620.609 87.764C619.937 87.452 619.037 87.296 617.909 87.296H613.589L612.653 92.3H616.973ZM636.525 84.236H639.765L644.517 104H640.917L637.353 88.484L628.029 104H624.429L636.525 84.236ZM660.516 87.296H656.412C655.812 87.296 655.236 87.368 654.684 87.512C654.132 87.632 653.64 87.848 653.208 88.16C652.8 88.448 652.464 88.832 652.2 89.312C651.96 89.768 651.84 90.32 651.84 90.968C651.84 91.736 652.128 92.324 652.704 92.732C653.28 93.14 654.144 93.344 655.296 93.344H659.4L660.516 87.296ZM652.02 96.116C650.844 95.78 649.944 95.204 649.32 94.388C648.696 93.548 648.384 92.564 648.384 91.436C648.384 90.356 648.612 89.384 649.068 88.52C649.524 87.632 650.124 86.876 650.868 86.252C651.612 85.604 652.464 85.112 653.424 84.776C654.408 84.416 655.404 84.236 656.412 84.236H664.44L660.804 104H657.42L658.824 96.404H655.548L649.032 104H645.108L652.02 96.116ZM676.313 77.144C676.265 77.312 676.241 77.468 676.241 77.612C676.241 77.756 676.241 77.9 676.241 78.044C676.241 79.364 676.973 80.024 678.437 80.024C680.165 80.024 681.209 79.064 681.569 77.144H684.557C683.981 78.776 683.129 79.964 682.001 80.708C680.897 81.452 679.589 81.824 678.077 81.824C676.565 81.824 675.389 81.452 674.549 80.708C673.733 79.964 673.325 78.776 673.325 77.144H676.313ZM668.789 84.236H672.137L669.365 99.212L683.117 84.236H686.501L682.829 104H679.481L682.253 88.988L668.501 104H665.117L668.789 84.236Z" fill="#FF5983"/>
</svg>
